<svg width="27" height="21" viewBox="0 0 27 21" fill="none" xmlns="http://www.w3.org/2000/svg">
<g clip-path="url(#clip0_368_339)">
<path d="M23.1009 0H3.89907C1.76087 0 0 1.74308 0 3.85968V17.1403C0 19.2569 1.76087 21 3.89907 21H23.1009C25.2391 21 27 19.2569 27 17.1403V3.85968C27 1.74308 25.2391 0 23.1009 0ZM23.1009 1.82609C23.1009 1.82609 23.3944 1.82609 23.5621 1.86759L15.4705 10.9565C14.9674 11.496 14.2547 11.8281 13.5 11.8281C12.7453 11.8281 12.0326 11.496 11.5295 10.9565L3.43789 1.90909C3.43789 1.90909 3.73137 1.86759 3.89907 1.86759H23.1009V1.82609ZM25.1553 17.0988C25.1553 18.2194 24.2329 19.1324 23.1009 19.1324H3.89907C2.76708 19.1324 1.84472 18.2194 1.84472 17.0988V3.85968C1.84472 3.56917 1.88665 3.32016 2.01242 3.11265L10.146 12.2431C10.9845 13.1976 12.2003 13.7372 13.5 13.7372C14.7997 13.7372 16.0155 13.1976 16.854 12.2431L24.9876 3.11265C25.0714 3.36166 25.1553 3.61067 25.1553 3.85968V17.1403V17.0988Z" fill="#646464"/>
</g>
<defs>
<clipPath id="clip0_368_339">
<rect width="27" height="21" fill="white"/>
</clipPath>
</defs>
</svg>
